# xmcd
#
# Track frame offsets:
#	150
#	18643
#	37053
#	53415
#	65765
#	79802
#	96685
#	115160
#	130595
#	148948
#	167012
#	185220
#	202800
#	217006
#	238216
#	256990
#	273382
#	286507
#	302468
#	318033
#	333975
#
# Disc length: 4656 seconds
#
# Revision: 0
# Processed by: cddbd v1.5.2PL0 Copyright (c) Steve Scherf et al.
# Submitted via: EasyCDDAExtractor 11.5.0.1
#
DISCID=38122e15
DTITLE=Various Artist - NCT 122
DYEAR=2009
DGENRE=Country
TTITLE0=Brooks and Dunn - Indian Summer
TTITLE1=Rascal Flatts - Summer Nights
TTITLE2=Pat Green - What I'm For
TTITLE3=Rodney Atkins - 15 Minutes
TTITLE4=Jeff Griffith - Dip Me In Beer
TTITLE5=Trace Adkins - All I Ask For Anymore
TTITLE6=Trent Tomlinson - Henry Cartwright's Produce Stand
TTITLE7=Jason Aldean - Big Green Tractor
TTITLE8=Martina McBride - I Just Call You Mine
TTITLE9=Luke Bryan - Do I
TTITLE10=Cledus T. Judd ft. Brooks and Dunn - Garth Must Be Busy
TTITLE11=Phil Vassar - Bobbi With An I
TTITLE12=Jake Owen - Eight Second Ride
TTITLE13=The Parks - As Long As You're Going My Way
TTITLE14=Shawna Russell - Fire In The Desert
TTITLE15=Jimmy Wayne - I'll Be That
TTITLE16=Holly Williams - Mama
TTITLE17=Megan Mullins - Long Past Gone
TTITLE18=Jesse Lee - It's A Girl Thing
TTITLE19=Whitney Duncan - Skinny Dippin'
TTITLE20=Darren Kozelsky - Seven Vern Gosdins Ago
EXTD=
EXTT0=
EXTT1=
EXTT2=
EXTT3=
EXTT4=
EXTT5=
EXTT6=
EXTT7=
EXTT8=
EXTT9=
EXTT10=
EXTT11=
EXTT12=
EXTT13=
EXTT14=
EXTT15=
EXTT16=
EXTT17=
EXTT18=
EXTT19=
EXTT20=
PLAYORDER=
